<?xml version="1.0" encoding="UTF-8"?>
<svg id="Capa_1" xmlns="http://www.w3.org/2000/svg" xmlns:xlink="http://www.w3.org/1999/xlink" viewBox="0 0 364.4 127.17">
  <defs>
    <style>
      .cls-1 {
        fill: #c4ddf2;
      }

      .cls-2 {
        clip-path: url(#clippath-4);
      }

      .cls-3 {
        fill: #00558c;
      }

      .cls-4 {
        fill: #fff;
      }

      .cls-5 {
        fill: none;
      }

      .cls-6 {
        clip-path: url(#clippath-1);
      }

      .cls-7 {
        fill: url(#Degradado_sin_nombre);
      }

      .cls-8 {
        fill: #51a4db;
      }

      .cls-9 {
        clip-path: url(#clippath-2);
      }

      .cls-10 {
        clip-path: url(#clippath);
      }
    </style>
    <clipPath id="clippath">
      <rect class="cls-5" x="-41.29" y="-16.3" width="1920" height="1080"/>
    </clipPath>
    <clipPath id="clippath-1">
      <path class="cls-5" d="M19.23,74.67c0,18.17,14.72,32.89,32.87,32.89s32.87-14.73,32.87-32.89-14.72-32.89-32.87-32.89-32.87,14.73-32.87,32.89"/>
    </clipPath>
    <clipPath id="clippath-2">
      <rect class="cls-5" x="-41.29" y="-16.3" width="1920" height="1080"/>
    </clipPath>
    <clipPath id="clippath-4">
      <path class="cls-5" d="M476.15,195.25s-18.09,0-33.81.26c-15.73-.26-33.81-.26-33.81-.26,0,0-9.65-.32-12.17,6.71s-3.25,15.42-5.14,22.13c-1.89,6.71-18.56,52.34-20.66,59.58-.92,3.18-1.46,6.53-1.54,9.66-.05-.02-.08-.03-.08-.03,0,0-2.8,25.45,15.53,28.04,0,0,.01-.02.04-.05.95.18,1.94.27,2.95.25,2.86-.06,30.02-.08,54.89-.09,24.88.01,52.04.04,54.89.09,1.01.02,2-.07,2.95-.25.02.03.03.05.03.05,18.33-2.59,15.53-28.04,15.53-28.04,0,0-.03.01-.08.03-.08-3.13-.62-6.48-1.54-9.66-2.1-7.24-18.77-52.86-20.66-59.58-1.89-6.71-2.62-15.1-5.14-22.13-2.31-6.45-10.63-6.71-11.98-6.71-.12,0-.19,0-.19,0"/>
    </clipPath>
    <linearGradient id="Degradado_sin_nombre" data-name="Degradado sin nombre" x1="-41.81" y1="1063.65" x2="-40.81" y2="1063.65" gradientTransform="translate(172800.6 -6427.63) rotate(-90) scale(162.04 -162.04)" gradientUnits="userSpaceOnUse">
      <stop offset="0" stop-color="#db00e9"/>
      <stop offset=".18" stop-color="#de00df"/>
      <stop offset=".49" stop-color="#e800c6"/>
      <stop offset=".87" stop-color="#f9009d"/>
      <stop offset=".99" stop-color="#ff008e"/>
      <stop offset="1" stop-color="#ff008e"/>
    </linearGradient>
  </defs>
  <g class="cls-10">
    <path class="cls-3" d="M60.49,32.4c5.01-.04,11.24,2.4,11.24,2.4l10.47-15.51c-5.37-2.44-9.89.9-9.89.9,1.59.73,2.34,4.06-.07,6.42-2.42,2.37-5.58,2.23-7.94,1.67-2.36-.56-6.87-2.74-7.62-6.99-1.05-6.04,4.23-5.84,4.23-5.84-2.16-2.8-5.15-.65-5.15-.65.17-3.85-2.99-6.24-3.25-6.34h0s0,0,0,0c-.26.1-3.5,2.76-3.17,6.32,0,0-2.98-2.13-5.17.62,0,0,5.42.04,4.14,6.04-.91,4.26-5.05,6.24-7.41,6.8-2.36.56-5.85.78-8.14-1.7-2.29-2.48-.69-4.99-.08-6.35,0,0-4.5-3.35-9.87-.92l10.47,15.51s5.68-2.23,10.56-2.39c-19.77,3.89-34.68,21.32-34.68,42.22,0,23.69,19.13,42.91,42.79,43.04h1.38c-1.38-3.51-1.84-10.11-1.84-10.11l-1.74-.08c-17.05-1.25-30.49-15.48-30.49-32.85s14.75-32.94,32.94-32.94,32.94,14.75,32.94,32.94c0,12.36-6.81,23.14-16.89,28.77l-.53.27-2.26,1.12s.63,8.15.49,10.64c17.04-5.73,29.31-21.83,29.31-40.8,0-20.93-14.94-38.36-34.73-42.23M55.24,28.23c-2.45-.41-4.52-.18-5.61.01-.12.01-.24.03-.36.05,0,0,2.38-1.33,3.21-3.89.83,2.56,3.21,3.89,3.21,3.89-.15-.02-.3-.04-.46-.06"/>
    <path class="cls-3" d="M59.46,23.78c3.61,3.39,7.49,3.49,7.49,3.49-2.33-2.3-.58-5.48-.58-5.48l-2.29-1.07c-2.31,3.45-4.63,3.05-4.63,3.05"/>
    <path class="cls-3" d="M45.24,23.78c-3.61,3.39-7.49,3.49-7.49,3.49,2.33-2.3.58-5.48.58-5.48l2.29-1.07c2.31,3.45,4.63,3.05,4.63,3.05"/>
    <path class="cls-1" d="M85.2,74.68c0,18.17-14.77,32.89-33,32.89s-33-14.73-33-32.89,14.78-32.89,33-32.89,33,14.73,33,32.89"/>
  </g>
  <g class="cls-6">
    <path class="cls-4" d="M28.54,50.91c-.11.02-.23-.03-.29-.13L-9.46-10.79c-.09-.13-.05-.31.09-.4.14-.09.32-.05.4.09L28.74,50.47c.09.13.05.31-.09.4-.04.02-.07.04-.11.04"/>
    <path class="cls-4" d="M29.3,50.52c-.13.02-.27-.05-.32-.18L7.03-10.53c-.06-.15.02-.32.17-.37.15-.06.32.02.37.17l21.96,60.88c.06.15-.02.32-.17.37-.02,0-.04.01-.06.02"/>
    <path class="cls-4" d="M30.08,50.31c-.16.03-.31-.08-.33-.24L21.44-10.34c-.02-.16.08-.31.24-.33.16-.02.31.08.33.24l8.3,60.41c.02.16-.08.31-.24.33"/>
    <path class="cls-4" d="M30.86,50.27s-.04,0-.06,0c-.16,0-.28-.15-.27-.3l4.28-60.95c0-.16.15-.28.31-.27.16,0,.28.15.27.31l-4.28,60.95c0,.14-.11.25-.24.27"/>
    <path class="cls-4" d="M31.7,50.39s-.08,0-.12,0c-.15-.04-.25-.2-.21-.35L49.23-11.84c.04-.15.2-.25.36-.2.15.04.25.2.21.35l-17.86,61.87c-.03.11-.12.19-.23.21"/>
    <path class="cls-4" d="M32.46,50.68c-.06,0-.12,0-.18-.03-.14-.07-.2-.25-.13-.39L66.04-13.92c.07-.14.25-.2.39-.13.14.07.2.25.13.39L32.67,50.53c-.04.09-.12.14-.21.15"/>
    <path class="cls-4" d="M33.17,51.14c-.08.01-.16,0-.23-.06-.12-.1-.14-.28-.04-.41L86.9-14.4c.1-.12.28-.14.41-.04.12.1.14.28.04.41L33.35,51.04c-.05.06-.11.09-.18.1"/>
    <path class="cls-4" d="M33.75,51.71c-.1.02-.2-.02-.27-.1-.1-.12-.08-.31.04-.41L116.42-13.8c.12-.1.31-.08.41.04.1.12.08.31-.04.41L33.89,51.65s-.09.05-.14.06"/>
    <path class="cls-4" d="M34.2,52.41c-.12.02-.24-.04-.3-.15-.07-.14-.02-.32.13-.39L145.67-3.29c.14-.07.32-.02.39.13.07.14.02.32-.13.39L34.28,52.38s-.06.02-.09.03"/>
    <path class="cls-4" d="M34.49,53.18c-.14.02-.29-.07-.33-.21-.04-.16.05-.31.2-.36l113.12-29.75c.15-.04.31.05.36.2.04.15-.05.31-.21.35l-113.12,29.75s-.02,0-.03,0"/>
    <path class="cls-4" d="M27.9,51.43c-.09.01-.18-.01-.25-.08L-28.33-7.63c-.11-.11-.11-.3,0-.41.11-.11.3-.11.41,0L28.06,50.94c.11.11.11.3,0,.41-.04.05-.1.07-.16.08"/>
    <path class="cls-4" d="M27.39,52.06c-.07.01-.14,0-.2-.04L-55.6-4.29c-.13-.09-.17-.27-.08-.4.09-.13.27-.17.4-.08L27.5,51.54c.13.09.17.27.08.4-.05.07-.12.12-.2.13"/>
    <path class="cls-4" d="M27.03,52.77s-.1,0-.15-.02L-59.08,19.75c-.15-.06-.22-.22-.17-.37.06-.15.23-.22.38-.17L27.09,52.21c.15.06.22.22.17.38-.04.1-.13.16-.23.18"/>
    <path class="cls-4" d="M26.82,53.54s-.06,0-.09,0l-84.97-14.16c-.16-.03-.26-.18-.24-.33s.18-.27.33-.24l84.97,14.16c.16.03.26.17.24.33-.02.13-.12.22-.24.24"/>
    <path class="cls-4" d="M26.77,54.33s-.02,0-.03,0l-84.34,4.06c-.16,0-.3-.12-.3-.28,0-.16.11-.3.28-.3l84.34-4.06c.16,0,.3.12.31.28,0,.15-.1.28-.24.3"/>
    <path class="cls-4" d="M-55.07,76.95c-.15.02-.29-.07-.33-.21-.04-.15.05-.31.21-.35L26.76,54.54c.16-.04.31.05.35.21.04.15-.05.31-.21.35l-81.95,21.84s-.02,0-.03,0"/>
    <path class="cls-4" d="M-53.21,97.34c-.12.02-.25-.04-.3-.15-.07-.14-.01-.32.13-.39L26.99,55.38c.14-.07.32-.02.39.13.07.14.02.32-.13.39l-80.38,41.42s-.06.02-.09.03"/>
    <path class="cls-4" d="M-49.77,120.72c-.1.02-.2-.02-.27-.1-.1-.12-.08-.31.04-.41,0,0,67.63-56.21,77.39-64.08.12-.1.31-.08.41.04.1.12.08.31-.04.41-9.77,7.88-77.39,64.09-77.39,64.09-.04.03-.09.05-.14.06"/>
    <path class="cls-4" d="M-34.02,134.82c-.08.01-.16,0-.23-.06-.12-.1-.14-.28-.04-.41L27.93,56.74c.1-.12.28-.14.41-.04.12.1.14.28.04.41l-62.22,77.61c-.05.06-.11.09-.18.1"/>
    <path class="cls-4" d="M-9.29,134.59c-.06,0-.12,0-.18-.03-.14-.07-.2-.25-.13-.39L28.6,57.26c.07-.14.25-.2.39-.12.14.07.2.25.13.39L-9.08,134.44c-.04.09-.12.14-.21.15"/>
    <path class="cls-4" d="M9.59,133.22s-.08,0-.12,0c-.15-.04-.25-.2-.2-.36L29.34,57.61c.04-.15.2-.24.36-.2s.25.2.2.35l-20.08,75.24c-.03.11-.13.19-.23.21"/>
    <path class="cls-4" d="M25.94,133.71s-.04,0-.06,0c-.16,0-.28-.15-.27-.3l4.49-75.61c0-.16.15-.28.31-.27.16,0,.28.15.27.31l-4.49,75.61c0,.14-.11.25-.24.27"/>
    <path class="cls-4" d="M42.41,133.13h0c-.16.02-.31-.09-.33-.24l-11.16-75.06c-.02-.16.08-.31.25-.33.16-.02.31.09.33.24l11.16,75.06c.02.16-.08.3-.24.33"/>
    <path class="cls-4" d="M58.91,130.8c-.13.02-.27-.05-.32-.18L31.72,57.7c-.06-.15.02-.32.17-.37s.32.02.38.17l26.87,72.92c.06.15-.02.32-.17.37-.02,0-.04.01-.06.02"/>
    <path class="cls-4" d="M78.28,129.72c-.11.02-.22-.03-.29-.13L32.54,57.35c-.09-.14-.05-.31.09-.4.13-.09.31-.05.4.09l45.46,72.23c.09.14.05.31-.08.4-.04.02-.07.04-.11.04"/>
    <path class="cls-4" d="M102.91,127.86c-.09.01-.18-.01-.25-.08L33.2,56.9c-.11-.11-.11-.3,0-.41.11-.11.3-.11.41,0l69.45,70.88c.11.11.11.3,0,.41-.04.05-.1.07-.16.08"/>
    <path class="cls-4" d="M135.06,121.79c-.07.01-.14,0-.2-.04L33.79,56.27c-.13-.09-.17-.27-.09-.4.09-.14.27-.17.4-.09l101.07,65.47c.13.09.17.27.09.4-.05.07-.12.12-.2.13"/>
    <path class="cls-4" d="M150.32,100.26s-.1,0-.15-.01L34.2,55.6c-.15-.06-.23-.22-.17-.37.06-.15.22-.23.37-.17l115.97,44.65c.15.06.22.22.17.37-.04.1-.13.17-.23.18"/>
    <path class="cls-4" d="M150.62,73.46s-.06,0-.09,0l-116.04-18.65c-.16-.03-.27-.17-.24-.33.03-.16.17-.27.33-.24l116.04,18.66c.16.02.27.17.24.33-.02.13-.12.22-.24.24"/>
    <path class="cls-4" d="M148.32,47.74s-.02,0-.03,0l-113.7,6.26c-.16.01-.3-.11-.31-.27-.01-.16.11-.3.27-.31l113.7-6.26c.16-.01.3.11.31.27,0,.15-.1.28-.24.3"/>
  </g>
  <g class="cls-9">
    <path class="cls-4" d="M31.42,50.93s-.02,0-.03,0c0,0,.01,0,.02.01,0,0,0,0,.01,0"/>
    <path class="cls-4" d="M31.38,51.5s.03-.02.06-.04c-.04.01-.06.03-.06.04"/>
    <polyline class="cls-4" points="31.2 55.97 31.19 55.97 31.2 55.97 31.2 55.97"/>
    <path class="cls-3" d="M59.9,90.91s0,0,0,0c0,0,0,0,.01,0,.03-.02.05-.05.08-.07-.03.02-.06.04-.09.07"/>
    <path class="cls-3" d="M59.88,90.94s.02-.02.03-.03c0,0-.01,0-.01,0-.01.02-.02.03-.02.03"/>
    <path class="cls-3" d="M67.1,107.65c-.1-3.41-.8-5.65-1.15-7.29-.11-.54-.28-1.08-.49-1.59-.56-1.34-1.76-4.05-2.97-5.54-1.04-1.28-1.78-1.86-2.2-2.12.4.45,4.09,4.81,4.95,11.9,0,0,.91,9.26.66,12.43l1.24-4.64c0-.88,0-1.92-.04-3.15"/>
    <path class="cls-3" d="M31.42,50.93s0,0-.01,0c0,0-.01,0-.02-.01.01,0,.02,0,.03,0"/>
    <path class="cls-3" d="M31.44,51.46s-.06.05-.06.04c0-.02.02-.03.06-.04"/>
    <polyline class="cls-3" points="31.2 55.97 31.2 55.97 31.19 55.97 31.2 55.97"/>
    <path class="cls-4" d="M30.04,49.97s2.22-.12,3.6,1.29c1.38,1.41,1.31,3.54.58,4.7-.73,1.16-2.18,1.98-2.18,1.98l1.59.52s-.04,3.13-2.5,4.61c0,0,.11.41.34.52.23.11.79.18.77.5-.02.32-.16.5-.14.7.02.2.21.43.02.75-.18.32.14.59,0,.91-.14.32-.45.91-.36,1.95.09,1.04.02,1.16,1.45,4.45,1.43,3.29,2.04,3.77,2.68,5.45.64,1.68,1.11,3.38,1.11,3.38,0,0,.11.41,1.5-1.59,1.39-2,2.84-4.22,4.47-5.63,1.63-1.41,1.66-1.7,1.66-1.7,0,0-.18-1.02.95-2.84,1.13-1.82,1.48-2.14,1.5-3.77.02-1.64-.05-1.91.27-3.63s.57-4.18,2.22-5.88c1.66-1.7,3.82-1.36,5.31-.89s2.68,2.02,3.2,4.45c.52,2.43.09,5.25.68,7.58.59,2.34,1.39,2.25,2.09,3.47.7,1.23.89.98,1.36,1.39.48.41,2.38,1.73,3.27,3.5.89,1.77,1.93,4.29,2.23,5.4.29,1.11-2.59,3.63-2.59,3.63,0,0-3.48,4.95-5,5.79,0,0,2.04,1.95,3.93,4.84,1.88,2.88,2.48,9.38,2.63,11.11.16,1.73.16,8.2.16,8.2l-.95.36s-5.37,2.19-12.59,2.26l-1.18-.09s-1-3.75-1.29-7.52c-.29-3.77-.61-5.52-.02-9.54.59-4.02,1.34-5.91,3.66-8.58,2.32-2.68,2.27-4.77.43-6.34-1.84-1.57-5.72-3.11-7.43-4.75s-1.95-2.73-2.16-3.66c-.21-.93.14-2.84.14-2.84,0,0-2.45,1.82-2.75,4.16-.3,2.34-.07,3.34-.07,3.34,0,0-2.25,2.13-3.93,3.09-1.68.95-2.36,1.91-3.32,1.64-.95-.27-1.77-1.16-2.66-4.11-.89-2.95-1.95-9.4-1.95-9.4,0,0-.98-4.32-1.16-4.7s-.98-1.23-1-1.64c-.02-.41-.36-1.02-.23-1.45.14-.43,0-1.41.3-1.48.29-.07.86-.2.93-.52s-.45-.86-.45-.86c0,0-1.02-.89-1.43-2.29-.41-1.41-.04-1.86-.04-1.86l1.5-.27s.18-.41-.23-.7c-.41-.29-1.54-1.18-1.97-2.79-.43-1.61.39-4.36,3.02-4.61"/>
    <path class="cls-3" d="M53.6,61.98c.07-.03.05-.1-.05-.16,0,0-.2-.22-.37-.23-.17-.01-.27.13-.14.22.13.09.49.21.56.18"/>
    <path class="cls-3" d="M52.74,63.75s-.47-.06-.7.12c-.22.18.01.21.24.23.23.03.6-.04.85,0,.24.04.41,0,.38-.09-.03-.09-.41-.29-.77-.27"/>
    <path class="cls-3" d="M54.11,63.56c.03-.07-.3-.31-.48-.42-.18-.12-.53-.36-1.04-.32-.51.04-.92.23-1.13.42-.21.19-.37.3-.42.31-.05,0-.1.12.19.11.28-.01.56-.29.65-.34.09-.05.12-.08.12-.08,0,0,.47-.22.93-.08.46.13.73.33.85.38.12.05.3.1.33.04"/>
    <path class="cls-4" d="M81.62,45.19c-7.88-7.88-18.35-12.22-29.5-12.22s-21.62,4.34-29.5,12.22c-7.88,7.88-12.22,18.36-12.22,29.5s4.34,21.62,12.22,29.5c7.88,7.88,18.35,12.22,29.5,12.22s21.62-4.34,29.5-12.22c7.88-7.88,12.22-18.36,12.22-29.5s-4.34-21.62-12.22-29.5M52.12,115.96c-22.76,0-41.27-18.51-41.27-41.27s18.51-41.27,41.27-41.27,41.27,18.51,41.27,41.27-18.51,41.27-41.27,41.27"/>
    <path class="cls-4" d="M76.73,50.09c-6.57-6.57-15.31-10.19-24.6-10.19s-18.03,3.62-24.6,10.19c-6.57,6.57-10.19,15.31-10.19,24.6s3.62,18.03,10.19,24.6c6.57,6.57,15.31,10.19,24.6,10.19s18.03-3.62,24.6-10.19c6.57-6.57,10.19-15.31,10.19-24.6s-3.62-18.03-10.19-24.6M52.12,109.04c-18.94,0-34.35-15.41-34.35-34.35s15.41-34.35,34.35-34.35,34.35,15.41,34.35,34.35-15.41,34.35-34.35,34.35"/>
    <path class="cls-4" d="M15.87,74.25c0,.35-.08.65-.22.91-.14.25-.33.45-.58.58-.25.13-.55.2-.89.19-.27,0-.51-.05-.73-.14-.22-.09-.4-.21-.56-.38-.16-.16-.27-.35-.36-.58s-.12-.47-.11-.75c0-.15.02-.31.05-.46.03-.15.07-.3.13-.44s.12-.26.19-.37l.69.38v.11s-.86.71-.86.71v-.6s.46,0,.46,0c-.1.06-.18.15-.24.25s-.09.22-.09.36c0,.18.05.35.17.49.11.15.27.26.46.35.2.09.42.13.67.14.27,0,.51-.04.72-.12.21-.09.37-.21.48-.38.12-.16.18-.36.18-.59,0-.17-.03-.31-.11-.42-.08-.12-.19-.21-.35-.29l.09-.18c.26.07.46.22.6.43.15.22.22.48.21.78M15.9,72.86l-.47.72h-.81s-.33.37-.33.37h-.1s.02-1.48.02-1.48h.11s.29.26.29.26l1.3.02v.11Z"/>
    <path class="cls-4" d="M16.19,70.04c-.05.36-.16.66-.33.9-.17.25-.4.43-.67.54-.27.11-.58.14-.92.1-.35-.05-.65-.16-.89-.35-.24-.18-.41-.42-.52-.71-.1-.29-.13-.62-.08-.99.05-.36.16-.66.33-.91.17-.24.39-.42.66-.53.27-.11.58-.14.92-.1.35.05.65.16.88.35.24.18.41.42.52.71.1.29.13.62.08.99M15.86,69.94c.02-.18,0-.33-.09-.47-.08-.14-.22-.26-.4-.35-.19-.09-.42-.15-.69-.19-.3-.04-.56-.04-.79,0-.23.04-.41.13-.54.25-.14.12-.22.27-.24.46-.02.18,0,.34.09.48.08.14.22.25.41.34s.42.16.69.19c.3.04.56.04.79,0s.41-.13.55-.25c.14-.12.22-.28.24-.46"/>
    <path class="cls-4" d="M16.5,67.53l-.1-.03-.23-.41-2.37-.6-.39.25-.1-.03.29-1.14,3.19.8-.29,1.14ZM14.98,66.27h-.05s.11-.77.11-.77c.02-.15,0-.27-.07-.37-.07-.1-.18-.17-.34-.2-.37-.09-.6.05-.7.44l-.16.65-.27-.07.19-.74c.11-.45.25-.77.42-.95s.38-.24.62-.18c.26.06.42.22.49.46.07.24.04.59-.07,1.04l-.17.68ZM16.69,66.8l-.27-.07.16-.64c.06-.24.05-.44-.03-.59-.08-.15-.23-.26-.45-.31-.2-.05-.37-.04-.51.04-.14.08-.23.22-.28.42l-.17.65-.23-.06.23-.92c.1-.41.25-.71.44-.88.19-.17.42-.23.68-.16.22.05.38.16.5.32s.18.36.19.62c.01.26-.02.57-.12.92l-.16.66ZM15.28,65.13l-.17-.04.04-.18.17.04-.04.18Z"/>
    <polygon class="cls-4" points="17.5 63.84 17.4 63.8 17.2 63.38 14.89 62.59 14.48 62.81 14.38 62.77 14.87 61.34 14.97 61.37 15.17 61.79 17.48 62.58 17.89 62.37 17.99 62.4 17.5 63.84"/>
    <path class="cls-4" d="M18.22,61.73l-.1-.04-.16-.44-2.24-.97-.43.18-.1-.04.47-1.08,3.02,1.31-.47,1.08ZM16.52,58.23l-.75,1.43-.21-.09.64-1.48.31.14ZM16.93,58.42l-.8.4-.2-.09.22-.67.04-.08.79.34-.05.11ZM17.68,59.17l-.55,1.08-.2-.08.41-1.14.33.14ZM18,59.28l-.56.25-.18-.08-.2-.58.05-.11.95.41-.05.11ZM18.59,60.87l-.21-.09.53-1.52.31.14-.64,1.48ZM18.97,60l-.2-.09-.31-.93.05-.11.79.38-.33.75Z"/>
    <path class="cls-4" d="M19.63,58.54l-.09-.05-.11-.45-2.13-1.19-.44.14-.09-.05.58-1.03,2.5,1.4.44-.14.09.05-.74,1.33ZM18.71,57.29l-.23-.13.35-.63c.1-.18.12-.35.07-.52-.05-.17-.17-.31-.34-.41-.18-.1-.34-.12-.51-.07-.16.05-.29.16-.4.35l-.31.56-.24-.14.46-.82c.21-.37.43-.62.67-.74.24-.12.48-.1.74.04.26.14.4.36.43.64.03.28-.07.61-.28.99v.02s.05.03.05.03l-.46.82ZM20.74,56.56l-1.74.05.1-.8,2.02-.05-.74.11.77-.24.09.05-.5.89Z"/>
    <path class="cls-4" d="M21.54,55.18l-.09-.06-.06-.46-1.83-1.42-.58.05-.09-.06.32-.45,2.47,1.47.46-.09.09.06-.68.96ZM23.05,53.06l-3.36.18-.54-.38.28-.39,3.2-.17.08.23-2.03-1.08-.46.09-.09-.06.68-.96.08.06.07.46,2.34,1.66-.25.35Z"/>
    <path class="cls-4" d="M25.18,50.6c-.24.27-.5.45-.78.56-.28.11-.57.13-.85.07-.29-.06-.56-.21-.82-.44-.26-.24-.44-.5-.54-.79-.09-.29-.1-.58-.03-.88.08-.3.24-.59.49-.86.24-.27.5-.46.78-.56.28-.1.56-.13.85-.07.29.06.56.21.82.44.26.24.44.5.54.78.09.29.1.58.03.88-.08.3-.24.59-.49.86M24.97,50.33c.12-.13.18-.28.19-.44,0-.16-.04-.34-.14-.52-.1-.18-.26-.36-.46-.55-.22-.2-.44-.35-.65-.44-.21-.09-.41-.12-.59-.1-.18.02-.33.1-.46.25-.12.13-.19.28-.19.44,0,.16.04.33.14.51.1.18.26.36.46.55.22.2.44.35.65.44.21.09.41.12.59.1s.33-.1.46-.24"/>
    <path class="cls-4" d="M28.11,47.53l-.07-.08.07-.46-1.52-1.91-.46-.04-.07-.08.92-.73,2.05,2.57-.92.73ZM28.78,47l-.17-.22.52-.41c.17-.14.28-.29.34-.48.05-.18.05-.38,0-.59-.06-.21-.18-.43-.35-.64-.18-.22-.37-.39-.56-.5-.19-.11-.39-.16-.58-.15-.19,0-.37.08-.54.21l-.53.42-.17-.22.6-.48c.29-.24.59-.39.89-.46.3-.07.59-.06.85.03.27.09.5.27.71.52.15.19.26.4.31.62.05.22.06.44.02.67-.04.22-.13.44-.27.66-.13.21-.31.41-.54.59l-.53.42Z"/>
    <path class="cls-4" d="M31.42,44.96l-.06-.09.11-.45-1.31-2.06-.46-.09-.06-.09.99-.63,1.77,2.78-.99.63ZM31.99,41.11l-1.42.76-.12-.19,1.36-.86.18.29ZM32.21,41.49l-.88-.12-.12-.18.56-.44.08-.05.46.72-.1.06ZM32.41,42.53l-1.06.59-.12-.18.98-.71.19.31ZM32.61,42.81l-.61-.11-.11-.17.16-.6.1-.06.56.88-.1.06ZM32.21,44.46l-.12-.19,1.29-.96.18.29-1.36.86ZM33.01,43.95l-.12-.18.26-.95.1-.06.45.76-.69.44Z"/>
    <path class="cls-4" d="M34.38,43.12l-.05-.09.16-.44-1.11-2.18-.45-.13-.05-.09,1.36-.69.05.09-.16.44,1.3,2.55-1.05.54ZM35.22,42.69l-.1-.2,1.35-.82.16.31-1.41.72ZM35.99,42.3l-.1-.19.28-1.04.11-.05.46.91-.74.38Z"/>
    <path class="cls-4" d="M38.97,40.96l-.03-.1.22-.41-.79-2.31-.42-.19-.03-.1,1.11-.38,1.07,3.11-1.11.38ZM40.42,37.35l-1.56.41-.07-.21,1.52-.52.11.33ZM40.5,38.83l-1.17.33-.07-.2,1.12-.47.12.34ZM40.55,37.78l-.83-.32-.07-.21.65-.29.09-.03.28.81-.11.04ZM39.86,40.66l-.07-.21,1.48-.63.11.32-1.52.52ZM40.63,39.15l-.56-.25-.07-.19.29-.54.11-.04.34.98-.11.04ZM40.76,40.35l-.07-.21.48-.86.11-.04.26.84-.78.27Z"/>
    <path class="cls-4" d="M43.55,39.63c-.15.04-.3.06-.45.07-.15,0-.3,0-.45-.02-.15-.02-.29-.05-.43-.09l.15-.75.12-.03.88.65-.57.14-.11-.45c.07.08.19.14.34.16.15.02.32.01.49-.03.18-.04.32-.12.4-.23.08-.11.1-.23.07-.39-.03-.13-.12-.22-.26-.27-.14-.05-.37-.09-.68-.11-.26-.02-.47-.05-.64-.11-.17-.05-.3-.13-.39-.23-.09-.1-.16-.23-.2-.4-.07-.31-.02-.58.16-.81.18-.23.47-.4.85-.49.13-.03.27-.05.41-.06s.29,0,.43.02c.15.02.29.05.42.09l-.2.72-.12.03-.86-.62.6-.15.11.45c-.08-.09-.19-.15-.32-.18-.13-.03-.27-.03-.42,0-.15.04-.27.1-.35.2-.08.1-.11.2-.08.32.03.12.12.21.26.27.14.06.37.09.68.11.26.02.48.05.64.1.17.05.29.13.39.23.09.1.16.23.2.4.05.22.05.43-.02.62-.07.19-.19.35-.38.49-.18.14-.41.24-.68.31"/>
    <path class="cls-4" d="M45.22,36.73l-.12-.97.11-.02.7-.03.07.21-.64.79-.11.02ZM46.35,38.98v-.1s.31-.37.31-.37l-.39-2.74.36.08-1.37.31-.05-.34,2.92-.41.05.34-1.4.08.33-.18.38,2.74.41.27v.1s-1.54.22-1.54.22ZM48.26,36.31l-.83-.58v-.22s.69-.16.69-.16l.11-.02.15.97-.12.02Z"/>
    <path class="cls-4" d="M48.83,38.63v-.11s.34-.42.34-.42l-.22.46,1.29-3.29.53-.02,1.57,3.17-.27-.44.38.39v.11s-1.5.06-1.5.06v-.1s.45-.41.45-.41l.06.43-1.36-2.75h.17s-.67,2.83-.67,2.83l-.03-.43.49.37v.1s-1.24.05-1.24.05ZM49.61,37.64v-.28s1.81-.07,1.81-.07v.28s-1.81.08-1.81.08ZM50.16,35.79l-.39-.39v-.1s.6-.03.6-.03l-.2.52Z"/>
    <path class="cls-4" d="M53.01,38.49v-.11s.37-.29.37-.29l.18-2.44-.31-.34v-.1s1.18.09,1.18.09l-.24,3.28-1.17-.09ZM53.87,38.55l.02-.28.66.05c.22.02.41-.03.57-.12s.3-.24.39-.44.16-.43.18-.71c.02-.29,0-.53-.07-.74-.07-.21-.18-.38-.33-.5-.15-.12-.33-.19-.54-.21l-.67-.05.02-.28.76.06c.38.03.7.12.97.27.27.15.47.35.61.6s.19.54.17.86c-.02.25-.08.47-.19.67-.11.2-.26.37-.44.5-.18.14-.4.24-.64.3-.24.07-.51.09-.79.07l-.68-.05Z"/>
    <path class="cls-4" d="M59.09,39.27c-.35-.07-.65-.2-.88-.39-.24-.19-.4-.42-.5-.7-.09-.28-.11-.59-.04-.93.07-.35.2-.64.4-.86s.44-.38.74-.47c.3-.09.63-.1.99-.02.36.07.65.2.88.39.23.19.4.42.49.7.09.28.11.59.04.93-.07.35-.2.63-.4.86-.2.23-.44.39-.74.47-.3.09-.63.1-.99.02M59.22,38.96c.17.03.33.01.48-.06.14-.08.27-.2.37-.38.1-.18.18-.4.23-.68.06-.3.07-.56.04-.79-.03-.23-.1-.41-.21-.56-.11-.14-.26-.23-.45-.27-.18-.04-.34-.02-.48.06-.14.08-.27.2-.37.38-.1.18-.18.41-.23.68-.06.29-.07.56-.04.78.03.23.1.42.21.56.11.14.26.23.45.27"/>
    <path class="cls-4" d="M63.22,40.22l.04-.1.43-.18.86-2.29-.21-.42.04-.1,1.1.41-1.16,3.08-1.1-.41ZM64.02,40.52l.1-.26.62.23c.2.08.4.09.58.04.19-.05.35-.15.5-.31.15-.16.28-.37.37-.63.1-.27.15-.51.14-.73,0-.22-.06-.41-.17-.57-.11-.16-.26-.28-.46-.35l-.63-.24.1-.26.71.27c.35.13.64.31.85.53.22.22.35.47.41.75.06.28.03.57-.08.87-.09.23-.21.43-.37.59-.16.16-.35.28-.57.36-.21.08-.45.11-.7.11-.25,0-.51-.06-.78-.16l-.63-.24Z"/>
    <path class="cls-4" d="M67.13,41.75l.05-.09.45-.13,1.09-2.18-.16-.44.05-.09,1.05.53-1.47,2.94-1.05-.53ZM67.97,42.17l.1-.2,1.49.61-.15.31-1.44-.72ZM69.72,41.35l-1.05-.61.1-.19,1.12.47-.16.33ZM68.82,42.59l.1-.2.95-.26.11.05-.42.77-.73-.37ZM70.72,40.25l-1.39-.83.1-.2,1.44.72-.15.31ZM69.59,41.66l-.22-.58.09-.18.59-.17.11.05-.47.93-.11-.05ZM70.51,40.64l-.35-.82.1-.2.66.26.08.04-.38.77-.11-.05Z"/>
    <path class="cls-4" d="M73.05,45.26c-.29-.2-.49-.43-.63-.69-.13-.26-.18-.53-.15-.81.03-.28.15-.56.34-.84.16-.22.33-.4.53-.52.19-.13.4-.21.63-.25.22-.04.45-.03.68.03.23.06.46.17.68.33.12.09.24.19.35.3.11.11.21.23.29.35.09.12.15.24.19.37l-.7.35-.09-.07-.1-1.11.49.35-.26.37c0-.12-.02-.23-.07-.34-.05-.11-.14-.2-.25-.28-.15-.1-.31-.15-.5-.14-.19.01-.37.07-.55.18-.18.11-.35.27-.49.47-.16.22-.26.44-.3.66-.04.22-.03.42.04.61.07.19.2.35.38.48.14.1.28.15.41.15.14,0,.28-.04.43-.13l.1.18c-.21.17-.44.25-.7.25-.26,0-.51-.09-.76-.27M74.18,46.06l-.33-.79.47-.66-.13-.49.06-.09,1.21.85-.06.09-.38.09-.75,1.06-.09-.06Z"/>
    <path class="cls-4" d="M78.79,46.16l-.08-.54.07-.08.92.82-.07.08-.5.02-1.07,1.21c-.17.2-.36.33-.57.4-.21.07-.43.08-.65.03-.22-.05-.43-.17-.63-.34-.36-.31-.56-.64-.6-.97-.04-.33.07-.65.34-.95l1.11-1.26-.04-.46.07-.08,1.14,1.01-.07.08-.47.02-1.01,1.15c-.21.24-.33.46-.34.67-.01.2.08.39.26.55.19.17.38.23.58.19.2-.04.4-.18.62-.42l1-1.12Z"/>
    <path class="cls-4" d="M77.68,48.97l.08-.07h.54s-.5.12-.5.12l3.35-1.13.36.39-1.41,3.24.16-.49-.05.55-.08.07-1.02-1.11.08-.07.61.08-.29.33,1.23-2.81.11.12-2.6,1.31.31-.3.04.61-.08.07-.84-.91ZM78.93,48.93l.2-.19,1.23,1.34-.2.19-1.23-1.34ZM80.7,48.16l.05-.55.08-.07.41.44-.53.18Z"/>
    <path class="cls-4" d="M80.48,52.08l.08-.06.46.08,1.93-1.28.13-.57.08-.06.32.44-2.18,1.87-.06.46-.08.06-.69-.95ZM82.01,54.19l.9-3.24.54-.39.28.39-.86,3.09h-.24s1.67-1.58,1.67-1.58l.06-.46.08-.06.69.95-.08.06-.46-.09-2.32,1.69-.26-.35Z"/>
    <path class="cls-4" d="M82.69,55.14l.09-.05.53.11h-.51s3.51-.36,3.51-.36l.27.46-2.09,2.85.26-.44-.17.52-.09.05-.75-1.31.09-.05.58.21-.36.25,1.81-2.47.08.14-2.83.71.36-.23-.1.61-.09.05-.62-1.08ZM83.93,55.38l.24-.14.91,1.58-.24.14-.91-1.58ZM85.82,55.01l.17-.53.09-.05.3.52-.56.06Z"/>
    <path class="cls-4" d="M85.12,59.84c-.06-.13-.1-.27-.12-.43-.02-.16-.02-.31,0-.47.02-.16.06-.3.11-.43l.76.1.05.11-.63.88-.22-.49.67-.3c-.17.16-.29.31-.33.45-.05.14-.04.28.03.44.06.13.16.21.3.23.14.03.31,0,.51-.09l1.73-.77.15-.44.1-.04.62,1.39-.1.04-.43-.18-1.6.71c-.35.15-.66.17-.94.05-.28-.12-.51-.37-.68-.75"/>
    <path class="cls-4" d="M89.61,63.49l.2-.5.1-.03.38,1.17-.1.03-.44-.23-1.54.51c-.25.08-.48.1-.7.06-.22-.04-.41-.15-.57-.3-.16-.16-.29-.36-.37-.61-.15-.45-.16-.83-.03-1.14.13-.31.39-.53.77-.65l1.6-.52.2-.42.1-.03.47,1.44-.1.03-.41-.22-1.46.48c-.31.1-.52.24-.63.4-.11.17-.13.37-.05.61.08.24.21.39.4.46.19.07.44.05.75-.05l1.43-.47Z"/>
    <path class="cls-4" d="M87.22,65.36l.1-.02.47.27-.49-.14,3.46.71.11.52-2.85,2.09.39-.34-.32.45-.1.02-.32-1.47.1-.02.48.38-.41.14,2.48-1.81.04.16-2.91-.18.42-.1-.28.55-.1.02-.26-1.21ZM88.33,65.95l.27-.06.39,1.78-.27.06-.39-1.78ZM90.24,66.18l.32-.46.1-.02.13.59-.55-.11Z"/>
    <path class="cls-4" d="M88.1,69.84h.1s.36.32.36.32l2.75-.33-.09.36-.28-1.37.34-.04.35,2.92-.34.04-.05-1.4.17.33-2.75.33-.27.4h-.1s-.18-1.55-.18-1.55ZM90.37,68.76l.97-.1v.1s.03.7.03.7l-.21.06-.77-.66v-.11ZM90.73,71.8l.6-.82h.22s.15.7.15.7v.11s-.96.13-.96.13v-.12Z"/>
    <path class="cls-4" d="M88.37,74.57c0-.36.06-.67.2-.94s.33-.48.58-.62c.25-.15.55-.22.9-.23.36,0,.67.07.93.22.26.15.47.36.61.63.15.27.22.59.22.97,0,.36-.06.68-.2.94-.14.27-.33.47-.58.62-.25.15-.55.22-.9.23-.35,0-.66-.07-.93-.22-.26-.15-.47-.36-.61-.63-.14-.27-.22-.59-.22-.97M88.7,74.63c0,.18.05.33.16.46.1.13.25.22.45.28.2.06.43.09.71.09.3,0,.56-.04.78-.12.22-.08.38-.18.5-.32.12-.14.18-.3.17-.49,0-.18-.05-.33-.16-.46-.1-.12-.25-.22-.45-.28s-.43-.09-.71-.09c-.3,0-.56.04-.78.12-.22.08-.39.18-.51.32-.12.14-.18.3-.17.49"/>
    <path class="cls-4" d="M22.83,100.66l.06-.17.74.05c.39.02.7.03.96.03.25,0,.45-.03.61-.08s.28-.11.38-.2c.15-.13.23-.28.25-.43.02-.15-.03-.29-.14-.42-.08-.09-.17-.15-.29-.19-.11-.04-.23-.04-.34-.02l.34-.27.34.39-.95.11-.07-.08.24-.73c.13.04.26.1.37.16.12.07.23.14.34.23.11.09.21.18.29.28.29.33.46.63.52.89.05.26-.02.48-.21.65-.08.08-.19.13-.32.17-.13.03-.28.05-.47.05-.19,0-.42-.03-.69-.08-.27-.05-.6-.11-.97-.2l-.33-.04.13-.07.93,1.05.68.05.08.09-.81.69-1.67-1.89Z"/>
    <path class="cls-4" d="M27.11,105.13c-.23-.2-.39-.43-.47-.67-.08-.24-.09-.5-.02-.76.07-.26.21-.51.42-.76.23-.27.48-.46.74-.57.26-.11.52-.15.78-.1.26.04.51.16.74.37.23.2.38.42.47.67.08.24.09.5.02.76-.07.26-.21.51-.42.76-.23.27-.48.45-.74.57-.26.11-.52.15-.78.11-.26-.04-.5-.16-.73-.36M27.31,104.91c.1.09.22.13.35.12.13-.01.28-.08.44-.19.16-.12.34-.29.54-.51.31-.35.5-.65.58-.9.08-.25.04-.44-.11-.57-.11-.09-.22-.13-.35-.12-.13.01-.28.08-.44.19-.16.11-.34.28-.54.51-.31.35-.5.65-.58.9-.08.25-.04.44.12.57"/>
    <path class="cls-4" d="M29.86,107.26v-.18s.75-.14.75-.14c.38-.07.69-.14.93-.21.24-.07.43-.14.57-.23.14-.08.24-.17.32-.28.11-.16.16-.32.14-.48-.02-.15-.1-.28-.24-.38-.1-.07-.21-.1-.33-.11-.12,0-.23.01-.33.07l.26-.35.43.29-.9.34-.09-.06.06-.76c.14,0,.27.03.4.06.13.04.26.08.38.14.13.06.24.12.36.2.36.25.6.49.72.74.12.24.1.47-.04.68-.06.09-.15.17-.27.24-.11.07-.26.12-.45.16-.18.04-.41.08-.69.1-.27.02-.6.04-.99.04l-.33.04.11-.1,1.15.79.67-.12.1.07-.61.87-2.09-1.43Z"/>
    <path class="cls-4" d="M34.06,109.07v-.16s2.16-1.44,2.16-1.44l.97.5-.05.11-2.86.94-.05.08-.16-.03ZM34.06,109.07l.3-.2,2.49,1.27-.14.28-2.64-1.36ZM34.63,110.21l.05-.09.52-.04.6-1.18.12-.04.62.32-.65,1.26.27.44-.05.09-1.49-.76Z"/>
    <path class="cls-4" d="M69.61,110.37l-.15-.1.22-.71c.12-.37.2-.67.25-.92.05-.24.07-.45.07-.61,0-.16-.04-.3-.1-.41-.09-.18-.21-.29-.36-.35-.14-.06-.29-.05-.44.03-.11.05-.19.13-.25.24-.06.1-.1.21-.1.33l-.18-.4.46-.24-.12.95-.1.05-.65-.41c.07-.12.15-.23.24-.32.09-.1.19-.19.3-.27.11-.08.22-.16.34-.22.39-.2.72-.3.99-.29.27.01.47.13.58.35.05.1.08.22.08.35,0,.13-.02.29-.07.47-.05.18-.13.4-.24.65-.11.25-.25.55-.43.89l-.12.31-.03-.15,1.24-.65.21-.64.1-.05.48.95-2.24,1.18Z"/>
    <path class="cls-4" d="M74.97,107.29c-.25.18-.51.27-.77.29-.26.02-.5-.03-.74-.16-.24-.13-.45-.32-.63-.59-.2-.29-.33-.58-.37-.86-.05-.28-.02-.54.09-.78.1-.24.28-.45.54-.63.25-.17.5-.27.76-.29.26-.02.5.03.74.16.24.13.45.33.63.59.2.29.33.57.37.85.05.28.02.54-.08.78-.1.24-.28.45-.53.62M74.8,107.05c.11-.08.18-.18.2-.31.02-.13,0-.29-.08-.47-.07-.18-.19-.4-.36-.64-.27-.38-.51-.64-.73-.78-.22-.14-.41-.15-.58-.03-.12.08-.18.18-.2.31-.02.13,0,.29.08.47.07.19.19.4.36.65.27.38.51.64.73.78s.42.14.59.03"/>
    <path class="cls-4" d="M77.29,103.22l-.09-.1c.1-.09.17-.18.21-.29.04-.11.05-.21.04-.32s-.06-.21-.13-.29c-.1-.11-.22-.17-.36-.17-.14,0-.28.05-.4.16-.1.08-.17.18-.22.29-.05.11-.08.22-.09.35l-.24-.3.39-.42.12,1.01-.09.08-.72-.25c.07-.19.16-.38.29-.56.12-.18.28-.35.46-.51.19-.17.38-.3.56-.38.18-.08.35-.11.5-.1.15.02.28.08.38.2.17.19.2.42.1.69-.11.27-.35.57-.72.9M78.64,104.41c-.19.17-.38.3-.58.4-.2.1-.4.17-.62.2l-.17-.76.09-.08,1.01.26-.44.33-.28-.29c.13.03.25.02.37-.01.12-.03.23-.1.34-.2.09-.08.16-.18.19-.28.04-.1.04-.21.01-.32-.02-.11-.08-.21-.16-.3-.09-.1-.19-.16-.3-.19-.12-.03-.24-.03-.36,0-.12.03-.24.09-.34.18l-.17-.19c.4-.35.75-.57,1.05-.63.3-.07.55.01.74.23.13.15.2.32.22.5.01.18-.03.37-.13.57-.1.2-.26.39-.48.58M77.64,102.96l-.09-.1.16-.14.08.1-.16.14Z"/>
    <path class="cls-4" d="M82.22,100.84c-.2.23-.43.39-.67.47-.25.08-.5.09-.76.02-.26-.07-.51-.21-.76-.42-.27-.24-.46-.48-.57-.74s-.14-.52-.1-.78c.04-.26.17-.5.37-.73.2-.23.43-.38.67-.47.25-.08.5-.09.76-.02.26.07.51.21.76.43.26.23.45.48.56.74.11.26.15.52.1.78-.04.26-.17.5-.37.73M82,100.64c.09-.1.13-.22.12-.35-.01-.13-.07-.28-.19-.44-.12-.16-.29-.34-.51-.54-.35-.31-.65-.51-.89-.58-.25-.08-.44-.04-.57.11-.09.11-.13.22-.12.35.01.13.07.28.19.44.12.16.28.34.51.54.35.31.65.5.9.58s.44.04.57-.11"/>
    <path class="cls-3" d="M53.93,97.37s-3.31,9.48,2.16,20.19l2.08-.22s-2.57-3.31-3.9-9.67c0,0-1.3-6.73-.33-10.3"/>
    <path class="cls-3" d="M59.29,77.65c-3.8-1.55-5.66-2.55-5.66-2.55.21.34,2.27,1.74,4.1,2.53,1.83.79,3.62,2.2,3.62,2.2,2.76,2.43,2.22,4.75,2.22,4.75,1.07-2.85-.47-5.38-4.27-6.93"/>
    <path class="cls-3" d="M82.09,58.39c-.27-.6-.73-.45-.73-.45l-.6.19-2.99.88.82-4.05s.16-.58.19-1.04c.03-.48-.48-1-1.44-2-.82-.85-1.37-1.17-1.37-1.17l-.22.97-1.88,8.55-7.99,2.61s-1.39.43-2.13,1.53c-.74,1.09-.91,1.6-.58,1.82,0,0,.08.14,1-.12.92-.26,9.14-2.5,9.14-2.5l-4.32,20.09c-.17-.47-.35-.97-.5-1.42-.47-1.42-1.55-5.6-3.91-8.09-1.23-1.3-2.17-1.98-2.78-2.33-.44-.95-1.09-1.73-1.59-2.38-.9-1.14-1.14-1.73-1.3-3.3s0-2.89-.51-5c-.18-.71-.37-1.29-.56-1.74-.37-.89-.69-1.3-.69-1.3-1.38-1.7-3.44-2.1-3.44-2.1,2.27-.06,3.48,1.67,3.48,1.67,0,0,0-.02-.01-.05-.06-.21-.37-1.04-1.59-1.87-1.42-.96-2.89-.84-2.89-.84-4.43.12-4.98,4.1-5.39,5.62-.41,1.52-.82,3.84-.82,5.55s-.86,2.82-.86,2.82c-1.4,1.59-1.68,3.8-1.68,3.8,0,0-.63.57-2.12,2.12-1.39,1.45-4.16,5.55-4.53,6.09-.06-.31-.26-1.27-.78-2.48,0,0-.95-1.97-1.69-3.25-.74-1.28-2.15-4.52-2.33-5.02-.18-.51-.56-1.59-.41-2.48,0,0,.16-.63.24-.78.08-.15-.02-.36-.02-.36,0,0,.24-.37.03-.76,0,0,.3-.54.03-1.16,0,0,.27-.09.29-.53.02-.44-.53-.6-.53-.6,0,0-.43-.32-.66-.43,0,0,1.55-.92,2.01-2.34.46-1.41.43-1.83.43-1.83,0,0,.19.06.27-.03.08-.09.19-.35-.06-.51-.24-.15-.94-.41-1.5-.5,1.46-.7,2.46-2.19,2.46-3.91,0-.75-.19-1.45-.52-2.06-.12-.23-.27-.46-.45-.67-.79-.98-2-1.6-3.36-1.6h0c-.1,0-.21,0-.31.01,0,0,0,0,0,.01-4.12.37-4.14,4.15-4.14,4.15,0,0,.02.34.16.84.19,1.22.89,2.27,1.87,2.93-.38.05-1.22.2-1.57.44,0,0-.06.4.05.46.11.06.24.07.24.07,0,0-.1,1.44.48,2.69.58,1.26,1.6,1.87,1.6,1.87,0,0-.54.03-.82.28-.28.25-.22.51-.22.62s0,.23-.09.32c-.1.1-.24.41-.06.78,0,0,.06.17-.02.31-.08.13-.09.4-.02.57.07.17.11.52.1.6,0,.08,0,.58.32,1.1.31.51.81.92,1.33,3.01.52,2.09,1.24,5.92,1.24,5.92,0,0,.5,3.14.59,3.67.08.43.85,3.07,1.2,4.14,0,.04,0,.08.02.12.35,1.08,1.43,3.77,4.28,2.35,2.85-1.43,6.56-4.69,6.56-4.69-.54-1.2-.1-4.12-.1-4.12,0,0,.06,1.77.6,4.03.54,2.25,2.63,4.6,3.2,7.32.57,2.73-.89,2.6-2.73,8.43-1.84,5.83-2.32,10.04-2.32,10.04-.13,2.96-.07,7.55-.07,7.55l.07,1.06s3.71,1.25,11.11,1.2c-.04-.09-.09-.21-.14-.36-.48-1.39-1.31-5.38-1.58-8.2-.29-3.12-.46-6.08.16-9.74.62-3.65,2.78-6.58,3.67-7.46.9-.88,2.28-2.23,1.79-4.33-.49-2.1-2.21-3.11-5.06-4.7-2.85-1.59-3.98-2.58-3.98-2.58-2.96-2.39-2.12-5.88-2.12-5.88-.15,3.62,4.93,6.54,7.91,7.64,2.98,1.1,4.4,2.58,4.4,2.58,3.01,2.91,1.9,5.56,1.59,6.14.02.02.02.01.04.03,1.95-1.78,3.17-4.72,2.31-7.05-.88-2.38-2.39-3.25-6.25-5.54-3.86-2.29-5.4-5.05-5.4-5.05-.82-1.39-.87-2.09-.87-2.83,0-.74-.1-1.76,1.03-2.41,1.13-.65,1.52-.59,2.08-.8s2.53-1.41,2.53-1.41c0,0-.38.11-.77.08-.39-.03-.74-.34-1.56-.64-.82-.29-2.16.52-2.53.69-.38.17-.56-.46-.66-.79-.1-.32-.61-1.43-.85-2.05-.23-.62-.16-.89.08-1.25.25-.36,1.08-1.09,1.76-1.39.69-.32.8-.07.86.24.07.34.03.88-.1,1.2-.11.26.05.26.27.19.23-.08.55-.37.55-.68s-.07-1.75-.07-1.75c-1.55.05-2.45.65-2.92.94-.46.29-1.06.76-.8.32.26-.44,1.14-1.07,1.14-1.07-.78.36-1.38,1.08-1.51,1.13-.13.04-.21-.09.27-.59.47-.51,1.25-.98,1.25-.98,0,0-.16,0-.71.34-.55.35-1.04.73-1.12.6-.08-.13.19-.49.19-.49.64-1.04,2.53-2.53,4.89-2.28,2.36.24,3.91,2.28,3.95,2.54.03.26-.18.21-.53-.12-.34-.32-1.02-.6-1.02-.6.55.4,1.67,1.43,1.75,1.61.09.18.01.38-.27.03-.28-.35-.83-.68-.83-.68.49.45.98,1.05.92,1.28s-.22.09-.37-.08c-.14-.18-.73-.7-.73-.7-1.46-1.2-3.24-1.2-3.24-1.2,0,0-.04.4.33.96.37.55,1,.45,1.15.29.16-.16.25-.46.91,0,.65.45,1.32,1.4,1.32,1.4,0,0,.07.92.07,1.65s-.32,3.12-1.75,3.69c-1.43.57-1.34,1.07-1.34,1.07.81.02,2.19-.39,2.19-.39,0,0-.15,1,.67,2.64.82,1.64,1.9,1.91,1.9,1.91,1.33.18,2.51.58,3.25.95.13.07.25.14.37.23.62.47,1.72,1.42,2.65,2.91-.38-.4-.82-.78-1.34-1.14-2.38-1.65-5.65-2.29-9.02-2.74-3.27-.44-3.69-2.01-3.71-2.11.35,1.86,1.5,2.37,2.48,2.83.99.46,2.36.91,6.51,2.53,4.15,1.62,5.19,3.91,5.19,3.91.97,1.93.65,3.75.23,4.92-.66,1.55-1.65,2.74-1.65,2.74.97-.77,1.57-1.69,1.8-2.1,1,1.96,2.3,3.42,2.94,3.9l-1.79,7.78s-1.88-3.85-5.79-6.35c0,0,.01.02.04.04.42.26,1.2.93,2.23,2.21,1.21,1.49,2.38,4.11,2.94,5.45.21.51.38,1.04.49,1.59.34,1.64.54,4.18.9,7.56.13,1.22.29,1.99.29,2.88l2.62-9.76,4.37-22.96c.38-.54,1.03-1.5,1.35-2.17.47-.98.05-.84.05-1.5s.19-.7-.19-.98c-.12-.09-.2-.18-.28-.25l2.04-10.74,4.98-1.57.34-.11s.37-.14.4-.36c.07-.54-.55-1.59-.74-2.01M30.9,56.82c-.21,0-.41-.02-.61-.06,1.57-.12,2.79-1.37,2.79-2.89,0-1.4-1.05-2.58-2.44-2.84.08,0,.17-.01.25-.01,1.68,0,3.04,1.3,3.04,2.9s-1.36,2.9-3.04,2.9"/>
    <path class="cls-3" d="M146.7,69.8c0,1.61-.18,2.76-.52,3.47-.35.71-.93,1.07-1.75,1.07s-1.36-.36-1.73-1.07c-.36-.71-.54-1.87-.54-3.47v-21.57h-8.86v21.16c0,4.21.92,7.26,2.75,9.15,1.83,1.89,4.62,2.84,8.38,2.84s6.59-.95,8.4-2.84c1.82-1.89,2.73-4.94,2.73-9.15v-21.16h-8.86v21.57Z"/>
    <path class="cls-3" d="M161.99,48.27l1.05,4.32-6.54,28.81h9.49l.86-4.44h5.72l.86,4.44h9.4l-7.13-33.15-13.73.02ZM167.76,69.87l1.95-11.98,1.91,11.98h-3.86Z"/>
    <path class="cls-3" d="M274.06,69.8c0,1.61-.18,2.76-.52,3.47-.35.71-.93,1.07-1.75,1.07s-1.36-.36-1.73-1.07c-.36-.71-.55-1.87-.55-3.47v-21.57h-8.86v21.16c0,4.21.92,7.26,2.75,9.15,1.83,1.89,4.62,2.84,8.38,2.84s6.59-.95,8.4-2.84c1.82-1.89,2.73-4.94,2.73-9.15v-21.16h-8.86v21.57Z"/>
    <path class="cls-3" d="M289.37,48.25l1.02,4.34-6.54,28.81h9.49l.86-4.44h5.72l.86,4.44h9.4l-7.1-33.13-13.73-.02ZM295.12,69.87l1.95-11.98,1.91,11.98h-3.86Z"/>
    <path class="cls-3" d="M218.05,48.23l1.02,4.35-6.54,28.81h9.49l.86-4.44h5.72l.86,4.44h9.4l-7.12-33.15-13.71-.02ZM223.8,69.87l1.95-11.98,1.91,11.98h-3.86Z"/>
    <polygon class="cls-3" points="201.68 67.18 195.28 48.22 183.38 48.22 185.24 52.97 185.24 81.37 193.87 81.37 193.87 64.18 199.68 81.38 210.31 81.38 210.31 48.22 201.68 48.22 201.68 67.18"/>
    <path class="cls-3" d="M332.9,48.29h-26.63s1.77,7.33,1.77,7.33h6.95v25.74h8.9v-25.8h5.49c.29-2.69,1.59-5.31,3.51-7.21v-.06Z"/>
    <path class="cls-3" d="M354.98,54.63c-.83-2.44-2.16-4.16-3.97-5.18-1.82-1.01-4.21-1.52-7.18-1.52s-5.36.51-7.18,1.52c-1.82,1.02-3.14,2.74-3.98,5.18-.83,2.44-1.25,5.79-1.25,10.06s.42,7.62,1.25,10.06c.83,2.44,2.16,4.16,3.98,5.18,1.82,1.02,4.21,1.52,7.18,1.52s5.36-.51,7.18-1.52c1.82-1.01,3.14-2.74,3.97-5.18.83-2.44,1.25-5.79,1.25-10.06s-.42-7.62-1.25-10.06M346.45,70.59c-.17,1.42-.45,2.42-.86,2.98-.41.56-.99.84-1.75.84s-1.3-.28-1.73-.84c-.43-.56-.72-1.55-.89-2.98-.17-1.42-.25-3.42-.25-5.99s.08-4.59.25-5.97c.17-1.38.46-2.33.89-2.86.42-.53,1-.79,1.73-.79s1.34.27,1.75.79c.41.53.7,1.48.86,2.86.17,1.38.25,3.37.25,5.97s-.08,4.57-.25,5.99"/>
    <path class="cls-3" d="M125.44,57.95l4.77-6.63s-4.04-4.3-11.93-3.08c-8.45,1.3-12.56,8.57-12.51,16.57.05,8.01,3.41,14.41,10.97,16.15,9.3,1.54,13.38-1.54,13.38-1.54v-14.57l-10.69-.05,2.54,4.53v3.57c-6.03,1.03-9.58-8.62-5.37-13.92,3.38-4.26,8.86-1.02,8.86-1.02"/>
    <path class="cls-3" d="M248.33,54.56v13.72c0,1.48-.09,2.63-.27,3.43-.18.8-.57,1.36-1.16,1.68-.59.32-1.48.48-2.66.48-.52,0-1.05-.05-1.59-.16-.5-.1-.96-.2-1.41-.31-.88-.29-1.32-.59-1.32-.59l1.61,7.98c1.4.56,4.06.67,4.73.69.33.02.63.03.89.03,1.88,0,3.46-.13,4.75-.39,1.29-.26,2.32-.75,3.09-1.48.77-.73,1.33-1.76,1.68-3.09.35-1.33.52-3.09.52-5.27l.04-22.99-11.43-.04,2.54,6.31Z"/>
  </g>
  <g>
    <path class="cls-8" d="M137.84,96.49c-.72-.38-1.27-.94-1.65-1.67s-.58-1.59-.58-2.6.2-1.82.61-2.53c.41-.71.98-1.24,1.71-1.61s1.58-.55,2.55-.55c.59,0,1.16.07,1.74.2.57.13,1.07.3,1.5.5-.1.58-.15,1.29-.15,2.13-.16.07-.33.12-.51.14-.18.02-.41.03-.69.03-.04-.75-.21-1.28-.54-1.59-.32-.31-.78-.46-1.37-.46-.81,0-1.41.33-1.81.98-.4.65-.6,1.46-.6,2.42,0,.81.1,1.53.3,2.16.2.64.49,1.13.86,1.49s.82.54,1.35.54c.29,0,.53-.03.71-.1.16-.06.27-.17.34-.3s.11-.37.11-.7v-.52c0-.32-.03-.55-.08-.7s-.15-.25-.29-.31c-.14-.06-.36-.09-.67-.1-.06-.25-.1-.56-.1-.95.49.03,1.11.04,1.85.04.58,0,1.2,0,1.88-.03,0,.38-.03.7-.08.93-.17,0-.3.04-.37.09s-.12.14-.14.26-.03.32-.03.6v.4c0,.32.01.57.04.75.03.18.09.37.18.57-.44.32-.97.58-1.59.77-.62.19-1.27.29-1.97.29-.98,0-1.83-.19-2.55-.58Z"/>
    <path class="cls-8" d="M148.89,96.47c-.71-.4-1.25-.97-1.63-1.7-.38-.73-.57-1.56-.57-2.51s.2-1.77.6-2.49c.4-.71.96-1.27,1.67-1.65.71-.39,1.51-.58,2.41-.58s1.76.19,2.46.57c.71.38,1.26.92,1.65,1.61.39.7.58,1.5.58,2.42s-.19,1.8-.58,2.55c-.39.75-.94,1.33-1.65,1.75-.71.42-1.53.62-2.46.62s-1.78-.2-2.48-.6ZM153.07,95.1c.36-.66.54-1.55.54-2.66,0-.73-.1-1.4-.3-2-.2-.6-.49-1.08-.86-1.43-.37-.35-.8-.53-1.28-.53-.62,0-1.11.3-1.48.91-.36.61-.54,1.45-.54,2.53,0,1.19.21,2.18.62,2.98.42.8,1.01,1.19,1.79,1.19.64,0,1.14-.33,1.5-1Z"/>
    <path class="cls-8" d="M166.9,94.27c0,.83-.33,1.49-.98,1.96-.65.48-1.69.71-3.1.71-1.7,0-3.17.01-4.39.04,0-.41.03-.73.1-.95.26-.02.45-.07.58-.14.13-.08.22-.22.27-.42.05-.2.08-.51.08-.92v-4.56c0-.39-.03-.68-.08-.87s-.14-.32-.26-.39c-.12-.07-.32-.13-.6-.16-.05-.25-.08-.56-.08-.95.35.03.84.04,1.47.04.58,0,1.04,0,1.39-.01h1.46c1.28-.01,2.2.15,2.77.49.56.33.84.87.84,1.6,0,.55-.19,1.02-.56,1.41-.38.39-.9.63-1.58.73,1.79.09,2.69.89,2.69,2.39ZM163.52,88.98c-.29-.27-.65-.4-1.08-.4-.21,0-.42.04-.62.11v3.01h.48c.55,0,.96-.14,1.24-.42.27-.28.41-.67.41-1.17s-.14-.86-.43-1.13ZM163.88,95.62c.26-.28.38-.68.38-1.18,0-.67-.18-1.14-.55-1.41-.37-.27-.89-.4-1.57-.4h-.33v2.02c0,.56.08.93.25,1.12.16.19.43.28.78.28.43,0,.77-.14,1.03-.43Z"/>
    <path class="cls-8" d="M170.22,89.13c-.05-.19-.13-.32-.25-.39-.12-.07-.32-.13-.58-.16-.07-.27-.11-.58-.11-.95.47.03,1.22.04,2.25.04.89,0,1.61-.01,2.16-.04,0,.4-.04.72-.11.95-.27.03-.46.08-.58.15-.12.07-.21.21-.25.4-.05.19-.07.49-.07.88v4.59c0,.4.02.7.08.9.05.2.14.33.26.41s.31.13.57.14c.07.24.11.55.11.95-.45-.03-1.13-.04-2.06-.04-.98,0-1.76.01-2.35.04,0-.32.04-.64.11-.95.26-.02.45-.07.57-.14s.21-.21.26-.41c.05-.2.08-.5.08-.9v-4.59c0-.39-.02-.68-.07-.87Z"/>
    <path class="cls-8" d="M183.47,94.36c.21.08.37.17.48.27-.2.63-.34,1.41-.43,2.35-.99-.02-2.13-.03-3.42-.03-1.42,0-2.77.01-4.06.04,0-.41.03-.73.1-.95.26-.02.45-.07.58-.14.13-.08.22-.22.27-.42.05-.2.08-.51.08-.92v-4.56c0-.39-.03-.68-.08-.87s-.14-.32-.27-.39c-.13-.07-.32-.13-.59-.16-.05-.2-.08-.52-.08-.95.77.03,1.89.04,3.36.04,1.8,0,3.05-.01,3.73-.04.02.39.05.81.1,1.26.05.45.11.82.19,1.11-.32.15-.72.22-1.19.22-.08-.54-.26-.95-.54-1.23s-.76-.42-1.43-.42h-.82v3.28h.22c.48,0,.8-.07.96-.21.16-.14.25-.4.26-.79.27-.1.63-.15,1.07-.15-.04.59-.05,1.11-.05,1.58,0,.53.02,1.07.05,1.62-.45,0-.8-.04-1.04-.12-.04-.39-.14-.66-.32-.8s-.48-.21-.93-.21h-.22v1.73c0,.41.03.73.1.94.06.22.17.37.33.45s.38.13.69.13h.19c.58,0,1.01-.14,1.3-.42.29-.28.53-.75.72-1.42.27.04.5.09.71.17Z"/>
    <path class="cls-8" d="M194.46,95.77c.16.13.39.21.71.23,0,.34-.04.65-.12.95-1.4,0-2.35.04-2.84.12-.18-.38-.39-.84-.62-1.4-.05-.15-.15-.37-.27-.66-.19-.48-.37-.84-.54-1.1-.16-.26-.38-.49-.63-.7h-.3s-.32,0-.32,0v1.28c0,.45.02.78.07,1,.05.22.12.36.21.43s.24.11.45.12c.05.15.08.46.08.95-.53-.03-1.26-.04-2.2-.04-.76,0-1.43.01-2,.04,0-.41.03-.73.1-.95.26-.02.45-.07.58-.14.13-.08.22-.21.27-.41.05-.2.08-.5.08-.9v-4.6c0-.39-.03-.68-.08-.87s-.14-.32-.26-.4c-.12-.08-.32-.13-.6-.16-.05-.21-.08-.52-.08-.93.96.03,1.68.04,2.17.04.14,0,.46,0,.97-.03.68-.02,1.25-.03,1.73-.03,1.1,0,1.92.23,2.48.7.55.47.83,1.07.83,1.81s-.18,1.33-.55,1.81c-.37.47-.86.79-1.48.95.32.17.58.39.78.65.2.26.48.74.84,1.45.21.39.39.66.55.79ZM191.31,91.78c.36-.32.54-.78.54-1.39s-.14-1.04-.43-1.37c-.28-.32-.69-.49-1.21-.49-.26,0-.48.03-.69.1v3.58c.21.03.36.04.45.04.52,0,.96-.16,1.33-.48Z"/>
    <path class="cls-8" d="M206.14,87.62c0,.42-.03.74-.08.95-.24.03-.42.09-.54.2-.12.1-.2.29-.25.56-.05.27-.07.67-.07,1.21v6.41c-.24.07-.6.11-1.08.11l-4.93-6.6v3.61c0,.54.03.94.08,1.21.05.27.16.45.3.56.15.11.37.18.66.21.06.21.08.53.08.95-.38-.03-.91-.04-1.58-.04-.77,0-1.33.01-1.67.04,0-.43.04-.75.11-.95.28-.03.5-.1.65-.21.15-.11.26-.3.32-.57s.1-.67.1-1.2v-4.87l-.16-.22c-.09-.14-.2-.23-.32-.28-.12-.05-.32-.09-.59-.12-.07-.25-.11-.56-.11-.95.35.03.89.04,1.62.04s1.17-.01,1.4-.04l4.17,5.68v-2.77c0-.53-.03-.93-.09-1.19s-.16-.45-.32-.56c-.15-.11-.39-.18-.71-.21-.06-.25-.1-.56-.1-.95.39.03.95.04,1.68.04.59,0,1.07-.01,1.41-.04Z"/>
    <path class="cls-8" d="M210.64,96.47c-.71-.4-1.25-.97-1.63-1.7-.38-.73-.57-1.56-.57-2.51s.2-1.77.6-2.49c.4-.71.96-1.27,1.67-1.65.71-.39,1.51-.58,2.41-.58s1.76.19,2.46.57c.71.38,1.26.92,1.65,1.61.39.7.58,1.5.58,2.42s-.19,1.8-.58,2.55c-.39.75-.94,1.33-1.65,1.75-.71.42-1.53.62-2.46.62s-1.78-.2-2.48-.6ZM214.82,95.1c.36-.66.54-1.55.54-2.66,0-.73-.1-1.4-.3-2-.2-.6-.49-1.08-.86-1.43-.37-.35-.8-.53-1.28-.53-.62,0-1.11.3-1.48.91-.36.61-.54,1.45-.54,2.53,0,1.19.21,2.18.62,2.98.42.8,1.01,1.19,1.79,1.19.64,0,1.14-.33,1.5-1Z"/>
    <path class="cls-8" d="M230.98,88c.73.24,1.32.68,1.76,1.33.45.65.67,1.56.67,2.75,0,1.35-.3,2.38-.89,3.1-.6.72-1.27,1.2-2.02,1.43-.75.23-1.47.34-2.16.34-1.42,0-2.77.01-4.06.04,0-.41.03-.73.1-.95.26-.02.45-.07.58-.14.13-.08.22-.22.27-.42.05-.2.08-.51.08-.92v-4.56c0-.39-.03-.68-.08-.87s-.14-.32-.26-.39c-.12-.07-.32-.13-.6-.16-.05-.25-.08-.56-.08-.95.59.03,1.46.04,2.62.04.27,0,.48,0,.63-.01h.87c.99-.01,1.85.11,2.57.34ZM230.34,95.25c.43-.52.65-1.5.65-2.94,0-1.35-.25-2.32-.73-2.9-.49-.58-1.12-.86-1.9-.86-.26,0-.48.04-.67.11v5.85c0,.41.03.73.1.94.06.22.17.37.33.45s.38.13.69.13c.59,0,1.11-.26,1.54-.78Z"/>
    <path class="cls-8" d="M243.21,94.36c.21.08.37.17.48.27-.2.63-.34,1.41-.43,2.35-.99-.02-2.13-.03-3.42-.03-1.42,0-2.77.01-4.06.04,0-.41.03-.73.1-.95.26-.02.45-.07.58-.14.13-.08.22-.22.27-.42.05-.2.08-.51.08-.92v-4.56c0-.39-.03-.68-.08-.87s-.14-.32-.27-.39c-.13-.07-.32-.13-.59-.16-.05-.2-.08-.52-.08-.95.77.03,1.89.04,3.36.04,1.8,0,3.05-.01,3.73-.04.02.39.05.81.1,1.26.05.45.11.82.19,1.11-.32.15-.72.22-1.19.22-.08-.54-.26-.95-.54-1.23s-.76-.42-1.43-.42h-.82v3.28h.22c.48,0,.8-.07.96-.21.16-.14.25-.4.26-.79.27-.1.63-.15,1.07-.15-.04.59-.05,1.11-.05,1.58,0,.53.02,1.07.05,1.62-.45,0-.8-.04-1.04-.12-.04-.39-.14-.66-.32-.8s-.48-.21-.93-.21h-.22v1.73c0,.41.03.73.1.94.06.22.17.37.33.45s.38.13.69.13h.19c.58,0,1.01-.14,1.3-.42.29-.28.53-.75.72-1.42.27.04.5.09.71.17Z"/>
    <path class="cls-8" d="M255.89,95.61c.29-.28.53-.75.72-1.42.26.04.49.09.71.17.21.08.38.17.49.27-.21.63-.35,1.41-.43,2.35-.99-.02-2.11-.03-3.35-.03-1.42,0-2.77.01-4.06.04,0-.41.03-.73.1-.95.26-.02.45-.07.58-.14.13-.08.22-.22.27-.42.05-.2.08-.51.08-.92v-4.56c0-.39-.03-.68-.08-.86s-.14-.31-.26-.39c-.12-.08-.32-.13-.6-.17-.05-.25-.08-.56-.08-.95.78.03,1.51.04,2.2.04.92,0,1.66-.01,2.21-.04,0,.23,0,.42-.02.56s-.04.27-.09.38c-.27.03-.46.08-.58.15-.12.07-.21.21-.25.4-.05.19-.07.49-.07.89v4.49c0,.41.03.73.1.94.06.22.17.37.33.45s.38.13.69.13h.19c.53,0,.94-.14,1.23-.42Z"/>
    <path class="cls-8" d="M268.95,96.99c-.48-.03-1.14-.04-2-.04-1.01,0-1.74.01-2.2.04,0-.41.04-.73.11-.95.21-.05.36-.1.45-.17.09-.07.14-.17.14-.31,0-.13-.05-.32-.15-.58l-.22-.51c-1.25,0-2.34.04-3.25.12l-.11.27c-.07.19-.11.36-.11.51,0,.38.21.6.62.66.07.27.11.59.11.95-.31-.03-.82-.04-1.52-.04-.58,0-1,.01-1.28.04,0-.38.04-.69.12-.95.23-.05.41-.16.56-.34.14-.18.32-.54.54-1.07l2.9-6.97c.14-.03.28-.05.43-.05.15,0,.31-.01.48-.01l3.1,6.89c.2.45.36.78.49.99.12.21.24.35.34.43.1.08.22.13.36.14.07.25.11.56.11.95ZM264.71,93.65l-.65-1.48c-.27-.64-.5-1.25-.67-1.83-.17.57-.38,1.17-.63,1.81l-.58,1.5h2.53Z"/>
    <path class="cls-8" d="M277.33,96.49c-.72-.38-1.27-.94-1.65-1.67s-.58-1.59-.58-2.6.2-1.82.61-2.53c.41-.71.98-1.24,1.71-1.61s1.58-.55,2.55-.55c.59,0,1.16.07,1.74.2.57.13,1.07.3,1.5.5-.1.58-.15,1.29-.15,2.13-.16.07-.33.12-.51.14-.18.02-.41.03-.69.03-.04-.75-.21-1.28-.54-1.59-.32-.31-.78-.46-1.37-.46-.81,0-1.41.33-1.81.98-.4.65-.6,1.46-.6,2.42,0,.81.1,1.53.3,2.16.2.64.49,1.13.86,1.49s.82.54,1.35.54c.29,0,.53-.03.71-.1.16-.06.27-.17.34-.3s.11-.37.11-.7v-.52c0-.32-.03-.55-.08-.7s-.15-.25-.29-.31c-.14-.06-.36-.09-.67-.1-.06-.25-.1-.56-.1-.95.49.03,1.11.04,1.85.04.58,0,1.2,0,1.88-.03,0,.38-.03.7-.08.93-.17,0-.3.04-.37.09s-.12.14-.14.26-.03.32-.03.6v.4c0,.32.01.57.04.75.03.18.09.37.18.57-.44.32-.97.58-1.59.77-.62.19-1.27.29-1.97.29-.98,0-1.83-.19-2.55-.58Z"/>
    <path class="cls-8" d="M293.64,94.36c.21.08.37.17.48.27-.2.63-.34,1.41-.43,2.35-.99-.02-2.13-.03-3.42-.03-1.42,0-2.77.01-4.06.04,0-.41.03-.73.1-.95.26-.02.45-.07.58-.14.13-.08.22-.22.27-.42.05-.2.08-.51.08-.92v-4.56c0-.39-.03-.68-.08-.87s-.14-.32-.27-.39c-.13-.07-.32-.13-.59-.16-.05-.2-.08-.52-.08-.95.77.03,1.89.04,3.36.04,1.8,0,3.05-.01,3.73-.04.02.39.05.81.1,1.26.05.45.11.82.19,1.11-.32.15-.72.22-1.19.22-.08-.54-.26-.95-.54-1.23s-.76-.42-1.43-.42h-.82v3.28h.22c.48,0,.8-.07.96-.21.16-.14.25-.4.26-.79.27-.1.63-.15,1.07-.15-.04.59-.05,1.11-.05,1.58,0,.53.02,1.07.05,1.62-.45,0-.8-.04-1.04-.12-.04-.39-.14-.66-.32-.8s-.48-.21-.93-.21h-.22v1.73c0,.41.03.73.1.94.06.22.17.37.33.45s.38.13.69.13h.19c.58,0,1.01-.14,1.3-.42.29-.28.53-.75.72-1.42.27.04.5.09.71.17Z"/>
    <path class="cls-8" d="M305.21,87.62c0,.42-.03.74-.08.95-.24.03-.42.09-.54.2-.12.1-.2.29-.25.56-.05.27-.07.67-.07,1.21v6.41c-.24.07-.6.11-1.08.11l-4.93-6.6v3.61c0,.54.03.94.08,1.21.05.27.16.45.3.56.15.11.37.18.66.21.06.21.08.53.08.95-.38-.03-.91-.04-1.58-.04-.77,0-1.33.01-1.67.04,0-.43.04-.75.11-.95.28-.03.5-.1.65-.21.15-.11.26-.3.32-.57s.1-.67.1-1.2v-4.87l-.16-.22c-.09-.14-.2-.23-.32-.28-.12-.05-.32-.09-.59-.12-.07-.25-.11-.56-.11-.95.35.03.89.04,1.62.04s1.17-.01,1.4-.04l4.17,5.68v-2.77c0-.53-.03-.93-.09-1.19s-.16-.45-.32-.56c-.15-.11-.39-.18-.71-.21-.06-.25-.1-.56-.1-.95.39.03.95.04,1.68.04.59,0,1.07-.01,1.41-.04Z"/>
    <path class="cls-8" d="M316.1,90.12c-.33.14-.75.21-1.25.21-.1-.61-.27-1.06-.49-1.33-.23-.27-.58-.41-1.06-.41h-.38v6c0,.41.03.71.1.91.06.19.18.33.36.41s.45.13.82.14c.07.19.11.51.11.95-.52-.03-1.34-.04-2.44-.04-1.29,0-2.23.01-2.83.04,0-.15.01-.31.04-.49.03-.18.06-.33.11-.45.38-.02.66-.07.84-.14.19-.08.32-.21.4-.41.08-.2.12-.5.12-.9v-6h-.21c-.51,0-.89.14-1.14.41-.25.27-.44.72-.59,1.33-.56,0-.97-.06-1.22-.19.09-.38.17-.8.23-1.27.06-.47.09-.89.09-1.24.7.03,2.07.04,4.09.04,1.65,0,2.99-.01,4.04-.04,0,.81.09,1.64.27,2.5Z"/>
    <path class="cls-8" d="M325.38,94.36c.21.08.37.17.48.27-.2.63-.34,1.41-.43,2.35-.99-.02-2.13-.03-3.42-.03-1.42,0-2.77.01-4.06.04,0-.41.03-.73.1-.95.26-.02.45-.07.58-.14.13-.08.22-.22.27-.42.05-.2.08-.51.08-.92v-4.56c0-.39-.03-.68-.08-.87s-.14-.32-.27-.39c-.13-.07-.32-.13-.59-.16-.05-.2-.08-.52-.08-.95.77.03,1.89.04,3.36.04,1.8,0,3.05-.01,3.73-.04.02.39.05.81.1,1.26.05.45.11.82.19,1.11-.32.15-.72.22-1.19.22-.08-.54-.26-.95-.54-1.23s-.76-.42-1.43-.42h-.82v3.28h.22c.48,0,.8-.07.96-.21.16-.14.25-.4.26-.79.27-.1.63-.15,1.07-.15-.04.59-.05,1.11-.05,1.58,0,.53.02,1.07.05,1.62-.45,0-.8-.04-1.04-.12-.04-.39-.14-.66-.32-.8s-.48-.21-.93-.21h-.22v1.73c0,.41.03.73.1.94.06.22.17.37.33.45s.38.13.69.13h.19c.58,0,1.01-.14,1.3-.42.29-.28.53-.75.72-1.42.27.04.5.09.71.17Z"/>
  </g>
  <g class="cls-2">
    <rect class="cls-7" x="343.69" y="159.59" width="197.3" height="197.3" transform="translate(-53.05 388.42) rotate(-45)"/>
  </g>
</svg>